<svg xmlns="http://www.w3.org/2000/svg" viewBox="0 0 590.96 585.14"><defs><style>.cls-1{font-size:38px;}.cls-1,.cls-2,.cls-5{fill:#854ce6;}.cls-1,.cls-2{font-family:BodoniSvtyTwoITCTT-Book, "Bodoni 72";}.cls-2{font-size:31.67px;}.cls-3,.cls-4{fill:none;}.cls-3{stroke:#854ce6;stroke-miterlimit:10;stroke-width:7px;}.cls-5{font-size:261px;font-family:AcademyEngravedLetPlain, Academy Engraved LET;}</style></defs><g id="Layer_2" data-name="Layer 2"><g id="Layer_1-2" data-name="Layer 1"><text class="cls-1" transform="translate(31.1 240.03) rotate(-74.03) scale(1.05 1)">N</text><text class="cls-1" transform="matrix(0.38, -0.97, 0.93, 0.37, 38.45, 214.59)">A</text><text class="cls-1" transform="translate(47.38 191.96) rotate(-63.42) scale(1.05 1)">T</text><text class="cls-1" transform="matrix(0.55, -0.89, 0.85, 0.52, 58, 170.75)">A</text><text class="cls-1" transform="translate(70.86 150.01) rotate(-53.42) scale(1.05 1)">L</text><text class="cls-1" transform="matrix(0.68, -0.8, 0.76, 0.65, 84.69, 131.66)">I</text><text class="cls-1" transform="matrix(0.71, -0.77, 0.73, 0.68, 93.21, 121.64)">I</text><text class="cls-1" transform="translate(102 111.95) rotate(-43.23) scale(1.05 1)">A</text><text class="cls-1" transform="matrix(0.8, -0.67, 0.64, 0.77, 120.05, 95.34)"> </text><text class="cls-1" transform="translate(125.97 89.96) rotate(-36.28) scale(1.05 1)">D</text><text class="cls-1" transform="matrix(0.9, -0.53, 0.51, 0.86, 149.21, 72.91)">O</text><text class="cls-1" transform="translate(174.26 58.24) rotate(-25.22) scale(1.05 1)">V</text><text class="cls-1" transform="matrix(0.98, -0.36, 0.34, 0.94, 197.37, 47.29)">H</text><text class="cls-1" transform="matrix(1.01, -0.27, 0.26, 0.97, 224.39, 37.62)">A</text><text class="cls-1" transform="matrix(0.97, -0.38, 0.37, 0.93, 399.12, 564.71)">P</text><text class="cls-1" transform="translate(421.06 556.15) rotate(-26.86) scale(1.05 1)">O</text><text class="cls-1" transform="translate(449.67 541.3) rotate(-32.68) scale(1.05 1)">R</text><text class="cls-1" transform="translate(472.21 526.65) rotate(-38) scale(1.05 1)">T</text><text class="cls-1" transform="matrix(0.76, -0.72, 0.68, 0.73, 493.15, 510.05)">F</text><text class="cls-1" transform="translate(511.55 492.78) rotate(-49) scale(1.05 1)">O</text><text class="cls-1" transform="matrix(0.6, -0.86, 0.82, 0.57, 532.47, 468.18)">L</text><text class="cls-1" transform="matrix(0.53, -0.9, 0.86, 0.51, 546.91, 447.01)">I</text><text class="cls-1" transform="translate(555.21 433.43) rotate(-64.4) scale(1.05 1)">O</text><text class="cls-2" transform="translate(568.46 404.48) rotate(-68.82) scale(1.05 1)"> </text><path class="cls-3" d="M299.07,15.41c159.28,0,288.39,123.49,288.39,275.83"/><ellipse class="cls-4" cx="299.07" cy="300.48" rx="246.99" ry="236.24"/><text class="cls-5" transform="translate(89.26 374.15) scale(1.09 1)">ND</text><path class="cls-3" d="M298.85,581.64c-159.27,0-288.39-123.49-288.39-275.82"/></g></g></svg>